<?xml version="1.0" encoding="UTF-8" standalone="no"?>
<!-- Created with Inkscape (http://www.inkscape.org/) -->

<svg
   width="230.38795mm"
   height="22.140194mm"
   viewBox="0 0 230.38795 22.140194"
   version="1.1"
   id="svg2006"
   inkscape:version="1.1.2 (08b2f3d93c, 2022-04-05)"
   sodipodi:docname="banshee.svg"
   xmlns:inkscape="http://www.inkscape.org/namespaces/inkscape"
   xmlns:sodipodi="http://sodipodi.sourceforge.net/DTD/sodipodi-0.dtd"
   xmlns="http://www.w3.org/2000/svg"
   xmlns:svg="http://www.w3.org/2000/svg">
  <sodipodi:namedview
     id="namedview2008"
     pagecolor="#ffffff"
     bordercolor="#666666"
     borderopacity="1.0"
     inkscape:pageshadow="2"
     inkscape:pageopacity="0.0"
     inkscape:pagecheckerboard="0"
     inkscape:document-units="mm"
     showgrid="false"
     inkscape:zoom="0.75187991"
     inkscape:cx="291.93492"
     inkscape:cy="39.234989"
     inkscape:window-width="1920"
     inkscape:window-height="1016"
     inkscape:window-x="0"
     inkscape:window-y="27"
     inkscape:window-maximized="1"
     inkscape:current-layer="layer1"
     fit-margin-top="0"
     fit-margin-left="0"
     fit-margin-right="0"
     fit-margin-bottom="0" />
  <defs
     id="defs2003" />
  <g
     inkscape:label="Layer 1"
     inkscape:groupmode="layer"
     id="layer1"
     transform="translate(5.7232986,-25.787104)">
    <path
       d="m 84.299168,25.787104 c -0.471311,0 -0.790575,0.01376 -1.246717,0.07126 -0.397228,0.06244 -0.701675,0.409575 -0.701675,0.830791 0,0.425098 0.293864,0.772937 0.697089,0.830439 l 0.222956,-0.02505 c 0.450497,-0.06773 0.559152,-0.04374 1.028347,-0.04374 5.135738,0 9.299221,4.200172 9.299221,9.381772 0,0.849136 -0.07796,1.579033 -0.287866,2.361494 l -0.02752,0.09208 c -0.0071,0.04586 -0.01199,0.09243 -0.01199,0.140406 0,0.487186 0.389113,0.881944 0.868891,0.881944 0.378178,0 0.699206,-0.245886 0.818445,-0.588433 h 0.0042 c 0.248708,-0.920397 0.382058,-1.888067 0.382058,-2.887486 0,-6.100233 -4.945238,-11.045472 -11.045471,-11.045472"
       style="fill:#312783;fill-opacity:1;fill-rule:nonzero;stroke:none;stroke-width:0.352778"
       id="path44-9"
       sodipodi:nodetypes="ccsccssccssccsc" />
    <path
       d="m 84.277118,30.106903 c -0.315736,0 -0.625475,0.02293 -0.930275,0.0635 v 3.53e-4 h -0.0046 c -0.06632,0.0088 -0.132997,0.01764 -0.198967,0.02858 -0.347133,0.09631 -0.603955,0.432152 -0.603955,0.832555 0,0.47625 0.361597,0.861483 0.807508,0.861483 l 0.03916,-0.0028 c 0.302331,-0.05327 0.573617,-0.06844 0.891117,-0.06844 2.949927,0 5.341408,2.399947 5.341408,5.360106 0,0.482247 -0.06456,0.949325 -0.183445,1.393825 h 0.0056 c -0.01235,0.05821 -0.01905,0.118533 -0.01905,0.180269 0,0.474486 0.383116,0.859014 0.856191,0.859014 0.353484,0 0.656872,-0.214842 0.7874,-0.521406 0.02223,-0.08008 0.04339,-0.160161 0.06315,-0.240947 0.0035,-0.0321 0.06209,-0.27693 0.06209,-0.27693 0.08961,-0.45085 0.137231,-0.916517 0.137231,-1.393825 0,-3.90772 -3.156655,-7.075311 -7.050616,-7.075311"
       style="fill:#312783;fill-opacity:1;fill-rule:nonzero;stroke:none;stroke-width:0.352778"
       id="path48-8"
       sodipodi:nodetypes="cccccsccssccsscccsc" />
    <path
       d="m 87.160336,36.304996 c -0.402167,-1.4224 -1.636183,-2.30752 -3.233561,-2.309636 -0.125942,0 -0.18415,-0.0046 -0.378531,0 -0.48013,0.01094 -0.86748,0.395464 -0.86748,0.876652 0,0.481542 0.386997,0.871009 0.866775,0.877359 0.125589,-3.53e-4 0.251177,0 0.376766,-3.53e-4 0.49142,-0.0011 0.926395,0.104775 1.265414,0.482953 0.296686,0.330905 0.367242,0.729897 0.366889,1.157816 -3.53e-4,0.299861 3.53e-4,0.599723 3.53e-4,0.899584 0.0822,0.396875 0.433564,0.695325 0.85478,0.695325 0.470959,0 0.852311,-0.373592 0.870303,-0.840317 -7.05e-4,-0.358069 3.53e-4,-0.715786 -7.05e-4,-1.074208 -7.06e-4,-0.255411 -0.05115,-0.517878 -0.121003,-0.765175"
       style="fill:#312783;fill-opacity:1;fill-rule:nonzero;stroke:none;stroke-width:0.352778"
       id="path52-5"
       sodipodi:nodetypes="cccscccccsccc" />
    <path
       d="m 79.71168,42.049699 c -0.0049,-1.376186 -1.128183,-2.491317 -2.493433,-2.475442 -1.367367,0.01623 -2.489553,1.153583 -2.476853,2.510367 0.01305,1.368777 1.139825,2.476147 2.511778,2.468033 1.380066,-0.0085 2.463447,-1.111603 2.458508,-2.502958 m -2.4765,-3.823759 c 1.556808,0.06174 2.721328,0.7493 3.407128,2.130073 0.675922,1.361722 0.551744,2.711097 -0.348192,3.933825 -0.833614,1.133122 -1.729317,2.220736 -2.608086,3.320344 -0.343958,0.430742 -0.562328,0.421922 -0.915811,-0.02187 -0.855133,-1.073503 -1.7272,-2.134659 -2.547761,-3.234267 -0.932745,-1.25095 -1.076325,-2.625725 -0.375709,-4.024841 0.691445,-1.381831 1.867959,-2.049287 3.388431,-2.103262"
       style="fill:#312783;fill-opacity:1;fill-rule:nonzero;stroke:none;stroke-width:0.352778"
       id="path56-9"
       sodipodi:nodetypes="ccccccccccccc" />
    <path
       d="m 81.959969,34.865276 c 0,-0.330906 0.119591,-0.630767 0.311855,-0.870303 -3.704166,-0.0025 -7.408686,7.06e-4 -11.113205,-0.0042 -0.771172,-7.06e-4 -1.534936,0.0085 -2.233789,0.407458 -0.340078,-0.350661 -0.713317,-0.522817 -1.165931,-0.28575 -0.384528,0.201789 -0.462844,0.555978 -0.462491,0.957792 0.0039,3.909483 0.0018,7.818966 0.0039,11.728449 0,0.141817 0.0046,0.28822 0.03916,0.423687 0.110067,0.430741 0.471664,0.691091 0.889706,0.658988 0.409223,-0.03104 0.744362,-0.352777 0.79622,-0.776816 0.0187,-0.153811 0.01693,-0.310797 0.01693,-0.466372 0.0011,-3.091392 -0.0018,-6.182431 0.0021,-9.273823 0.0014,-1.071738 0.540103,-1.609019 1.604786,-1.611136 1.364897,-0.0035 2.729442,-0.0011 4.094339,-0.0011 2.513189,0 5.02673,3.53e-4 7.539919,-0.0025 -0.198992,-0.241613 -0.323522,-0.547119 -0.323522,-0.884374"
       style="fill:#878787;fill-opacity:1;fill-rule:nonzero;stroke:none;stroke-width:0.352778"
       id="path60-3"
       sodipodi:nodetypes="cccccccccccccscc" />
    <path
       d="m 86.369163,39.677057 c -0.313267,0 -0.597959,-0.10795 -0.829734,-0.282575 -0.0011,2.462389 -0.0025,4.924072 0.0025,7.386461 7.06e-4,0.214841 0.02328,0.448027 0.107598,0.64135 0.156633,0.358069 0.583847,0.5334 0.947914,0.440619 0.413455,-0.105128 0.670983,-0.449439 0.671336,-0.934155 0.0021,-2.528711 -3.53e-4,-5.05707 -0.0035,-7.585428 -0.242006,0.206022 -0.55245,0.333728 -0.896056,0.333728"
       style="fill:#878787;fill-opacity:1;fill-rule:nonzero;stroke:none;stroke-width:0.352778"
       id="path64-5"
       sodipodi:nodetypes="cccccccc" />
    <path
       d="m -3.9402195,46.120401 c 0.113948,0.01199 0.190853,0.02752 0.267406,0.02752 4.957939,0.0011 9.915525,0.0049 14.8734635,-0.0035 0.872066,-0.0018 1.446741,-0.585611 1.478491,-1.45662 0.01517,-0.405341 0.0053,-0.812094 0.0039,-1.218494 -0.0049,-1.102078 -0.574675,-1.678517 -1.669345,-1.67887 -4.8397575,-0.0018 -9.6791625,-0.0011 -14.5192735,0 -0.138289,0 -0.276931,0.01305 -0.434623,0.02081 z m -0.0081,-6.123164 c 0.09878,0.01446 0.161219,0.03104 0.223661,0.03104 4.981222,7.06e-4 9.962797,0.0056 14.9436655,-0.0049 0.848078,-0.0018 1.422047,-0.590903 1.459089,-1.438981 0.01834,-0.418394 0.0067,-0.837847 0.0046,-1.2573 -0.0053,-1.08973 -0.585258,-1.665817 -1.682397,-1.666169 -4.8369355,-0.0011 -9.6738715,-7.06e-4 -14.5111605,3.52e-4 -0.137936,0 -0.275872,0.01305 -0.437444,0.02081 z m 17.3693655,0.923572 c 0.872067,0.845256 1.0795,1.86937 1.013883,2.985558 -0.02469,0.417689 0.01446,0.842081 -0.0381,1.255537 -0.17145,1.344083 -1.303161,2.760486 -3.388783,2.752019 -5.1950055,-0.02152 -10.3900105,-0.0071 -15.5850155,-0.0078 -0.130528,0 -0.26282,-0.0053 -0.391231,-0.02646 -0.460375,-0.07585 -0.712964,-0.353483 -0.750711,-0.818091 -0.0074,-0.09102 -0.0032,-0.183445 -0.0032,-0.274814 -3.53e-4,-3.905956 -7.06e-4,-7.811558 0,-11.716808 0,-0.871008 0.284339,-1.156406 1.151467,-1.156406 5.195005,-3.52e-4 10.39001,-7.05e-4 15.5850155,3.53e-4 2.075039,7.06e-4 3.415241,1.345495 3.418064,3.421944 3.52e-4,0.248709 -0.0127,0.498475 0.0021,0.746831 0.0628,1.069269 -0.19438,2.027061 -1.01353,2.838097"
       style="fill:#878787;fill-opacity:1;fill-rule:nonzero;stroke:none;stroke-width:0.352778"
       id="path68-1"
       sodipodi:nodetypes="ccccccccccccccccccccccscsccccscc" />
    <path
       d="m 172.28311,41.792664 c 0,1.108075 -0.0367,2.154414 0.0138,3.197225 0.03,0.620183 0.58914,1.086908 1.21355,1.147586 0.18239,0.01764 0.36724,0.01446 0.55034,0.01446 5.11457,7.05e-4 10.22914,0 15.34371,0.0028 0.19544,0 0.39653,0.0042 0.58456,0.04939 0.3937,0.09454 0.66357,0.479778 0.6477,0.878769 -0.0159,0.396522 -0.28328,0.705203 -0.69251,0.782108 -0.15346,0.02893 -0.31185,0.04304 -0.46813,0.04304 -5.19289,0.0025 -10.38613,0.0046 -15.57973,3.53e-4 -1.66687,-0.0014 -2.88008,-0.865011 -3.2766,-2.3368 -0.084,-0.311855 -0.12418,-0.644878 -0.12559,-0.968375 -0.0102,-2.450394 -0.01,-4.900789 -0.004,-7.351183 0.005,-1.970617 1.3716,-3.332692 3.34398,-3.33375 5.23275,-0.0028 10.46551,-0.0011 15.69791,-7.05e-4 0.10442,0 0.21025,-0.0046 0.31432,0.0064 0.45544,0.04904 0.79516,0.42933 0.79058,0.879122 -0.004,0.433211 -0.33162,0.798336 -0.7747,0.849136 -0.15523,0.01799 -0.31433,0.01094 -0.47167,0.01094 -5.14068,7.06e-4 -10.28135,3.53e-4 -15.42203,7.06e-4 -1.16699,0 -1.71485,0.541513 -1.71944,1.698977 -0.002,0.747184 -10e-4,1.494014 7.1e-4,2.240845 0,0.127705 0.013,0.255411 0.0233,0.430389 h 0.48613 c 3.48826,0 6.97653,-3.53e-4 10.46515,0 0.78458,3.52e-4 1.19027,0.294922 1.20156,0.870302 0.0116,0.587728 -0.39934,0.888295 -1.21744,0.888295 h -10.42602 z"
       style="fill:#878787;fill-opacity:1;fill-rule:nonzero;stroke:none;stroke-width:0.352778"
       id="path72-5"
       sodipodi:nodetypes="cscccscccccccssccccccccsccscc" />
    <path
       d="m 206.31033,41.792664 c 0,1.108075 -0.0367,2.154414 0.0138,3.197225 0.03,0.620183 0.58914,1.086908 1.21355,1.147586 0.18239,0.01764 0.36725,0.01446 0.55034,0.01446 5.11457,7.05e-4 10.22914,0 15.34371,0.0028 0.19544,0 0.39653,0.0042 0.58456,0.04939 0.3937,0.09454 0.66357,0.479778 0.6477,0.878769 -0.0159,0.396522 -0.28328,0.705203 -0.69251,0.782108 -0.15345,0.02893 -0.31185,0.04304 -0.46813,0.04304 -5.19289,0.0025 -10.38613,0.0046 -15.57973,3.53e-4 -1.66687,-0.0014 -2.88007,-0.865011 -3.2766,-2.3368 -0.084,-0.311855 -0.12417,-0.644878 -0.12559,-0.968375 -0.0102,-2.450394 -0.01,-4.900789 -0.004,-7.351183 0.005,-1.970617 1.3716,-3.332692 3.34398,-3.33375 5.23275,-0.0028 10.46551,-0.0011 15.69791,-7.05e-4 0.10477,0 0.21025,-0.0046 0.31432,0.0064 0.45544,0.04904 0.79516,0.42933 0.79058,0.879122 -0.004,0.433211 -0.33161,0.798336 -0.7747,0.849136 -0.15523,0.01799 -0.31433,0.01094 -0.47167,0.01094 -5.14032,7.06e-4 -10.281,3.53e-4 -15.42203,7.06e-4 -1.16664,0 -1.71485,0.541513 -1.71909,1.698977 -0.003,0.747184 -0.002,1.494014 3.6e-4,2.240845 3.5e-4,0.127705 0.0131,0.255411 0.0233,0.430389 h 0.48613 c 3.48826,0 6.97653,-3.53e-4 10.46515,0 0.78458,3.52e-4 1.19027,0.294922 1.20156,0.870302 0.0116,0.587728 -0.39934,0.888295 -1.21743,0.888295 h -10.426 z"
       style="fill:#878787;fill-opacity:1;fill-rule:nonzero;stroke:none;stroke-width:0.352778"
       id="path76-8"
       sodipodi:nodetypes="cscccsccccccsssccccccscsccscc" />
    <path
       d="m 154.66042,39.999179 v -0.461434 c 0,-1.532819 -0.002,-3.065991 0.001,-4.599163 0.002,-0.62865 0.32385,-1.005417 0.84737,-1.013531 0.54222,-0.0081 0.89852,0.385233 0.89852,1.011061 0.002,3.99662 0.002,7.992886 0,11.989153 -3.5e-4,0.593725 -0.36018,0.989189 -0.88265,0.989189 -0.52211,-3.53e-4 -0.86113,-0.384175 -0.86289,-0.99942 -0.004,-1.558925 -0.0102,-3.118555 0.005,-4.67748 0.003,-0.329848 -0.0617,-0.452614 -0.42651,-0.451909 -5.27191,0.0127 -10.54382,0.0085 -15.81573,0.0095 -0.11642,0 -0.23248,0.01023 -0.40605,0.01905 v 0.47625 c 0,1.480256 7.1e-4,2.961217 -0.001,4.441825 0,0.156634 0,0.315736 -0.0247,0.4699 -0.0621,0.385939 -0.38911,0.672747 -0.78599,0.706614 -0.38347,0.03281 -0.74295,-0.174978 -0.86819,-0.537633 -0.0582,-0.168275 -0.0762,-0.357717 -0.0765,-0.537986 -0.004,-3.944056 -0.002,-7.887758 -0.006,-11.831814 -3.5e-4,-0.388761 0.0759,-0.733778 0.42616,-0.954617 0.56762,-0.358069 1.29857,0.04057 1.32362,0.747889 0.0296,0.824089 0.0113,1.649942 0.0123,2.475089 0.001,0.799042 0.008,1.598789 -0.004,2.397831 -0.004,0.256469 0.0529,0.371475 0.34467,0.370769 5.33752,-0.0074 10.67505,-0.0053 16.01258,-0.0067 0.0765,0 0.15346,-0.01693 0.28822,-0.03245"
       style="fill:#878787;fill-opacity:1;fill-rule:nonzero;stroke:none;stroke-width:0.352778"
       id="path80-8"
       sodipodi:nodetypes="cscccsccccscscccccsccsccsc" />
    <path
       d="m 111.595,47.917028 c -2.24261,0 -4.48557,0.0078 -6.72818,-0.0028 -1.78823,-0.0085 -3.03601,-1.068917 -3.29741,-2.792237 -0.0342,-0.225425 -0.0205,-0.475191 0.0413,-0.693913 0.10689,-0.381353 0.45473,-0.593373 0.84102,-0.573264 0.37535,0.01975 0.70979,0.282927 0.80186,0.645583 0.0356,0.138994 0.0423,0.285044 0.0642,0.427214 0.11183,0.733072 0.65335,1.212497 1.40159,1.232958 0.31467,0.0081 0.62935,0.0021 0.94438,0.0021 4.18359,0 8.36719,3.53e-4 12.55113,-3.53e-4 1.16981,0 1.71485,-0.540103 1.71768,-1.699683 7e-4,-0.327731 0.001,-0.654756 0,-0.982486 -0.005,-1.103136 -0.57292,-1.677811 -1.67076,-1.678517 -4.43265,-0.0018 -8.86566,0.0095 -13.29831,-0.01446 -0.53622,-0.0032 -1.1109,-0.103011 -1.59879,-0.316089 -1.09537,-0.478719 -1.70427,-1.391002 -1.80164,-2.57175 -0.0631,-0.764822 -0.0497,-1.550105 0.0459,-2.3114 0.17922,-1.423811 1.38148,-2.5146 2.81023,-2.650066 0.16969,-0.01623 0.34043,-0.02822 0.51012,-0.02822 4.44641,-0.0014 8.89247,-0.0046 13.33817,3.52e-4 1.62948,0.0021 2.88079,0.900642 3.28507,2.354439 0.0759,0.273756 0.11748,0.565856 0.11959,0.850195 0.005,0.491772 -0.35771,0.851958 -0.82832,0.87383 -0.48013,0.02223 -0.84032,-0.292805 -0.90488,-0.791633 -0.1397,-1.078089 -0.63394,-1.515533 -1.71696,-1.515886 -4.4196,-3.53e-4 -8.8392,-3.53e-4 -13.25916,3.53e-4 -1.11442,0 -1.66229,0.546805 -1.66899,1.663347 -0.002,0.379941 -0.006,0.760589 10e-4,1.140178 0.0187,0.998008 0.57644,1.553986 1.57657,1.554691 4.47216,0.0035 8.94468,-3.53e-4 13.41684,0.0032 1.61431,0.0014 2.88008,0.873478 3.25014,2.331861 0.26917,1.061509 0.26388,2.166761 0.003,3.228975 -0.32491,1.323975 -1.50283,2.267656 -2.86561,2.289528 -2.35973,0.03775 -4.72087,0.01023 -7.08131,0.01023 z"
       style="fill:#878787;fill-opacity:1;fill-rule:nonzero;stroke:none;stroke-width:0.352778"
       id="path84-0"
       sodipodi:nodetypes="csscccccscccccccccccccccccccccccccc" />
    <path
       d="m 48.421279,40.042923 c 0,-0.937684 0.0028,-1.824567 -7.05e-4,-2.711097 -0.0042,-1.071387 -0.586317,-1.658409 -1.650295,-1.658761 -4.456641,-0.0018 -8.913283,-0.0018 -13.369924,0 -1.03505,3.52e-4 -1.609372,0.565502 -1.620661,1.59773 -0.0088,0.772583 0.01482,1.545872 -0.0099,2.31775 -0.01164,0.354542 0.08537,0.46355 0.454025,0.462844 5.243336,-0.01235 10.486319,-0.0085 15.729655,-0.0085 z m -16.644055,1.75895 v 0.502355 c 0,1.546931 0.0063,3.094214 -0.0035,4.640439 -0.0049,0.710494 -0.468841,1.075619 -1.129947,0.922514 -0.386644,-0.08961 -0.619125,-0.403931 -0.624064,-0.88265 -0.0081,-0.799747 -0.0025,-1.599142 -0.0025,-2.399242 0,-2.464152 -0.0067,-4.929011 0.0025,-7.393163 0.0063,-1.646767 1.083028,-2.939345 2.668764,-3.224389 0.217664,-0.03916 0.444147,-0.04057 0.666397,-0.04057 4.486628,-0.0021 8.973256,-0.0039 13.459883,-7.05e-4 1.992489,0.0014 3.353506,1.36913 3.354917,3.365852 0.0025,3.212042 0.0021,6.423378 -7.05e-4,9.63542 -7.06e-4,0.7239 -0.47625,1.104194 -1.150409,0.934508 -0.389466,-0.09772 -0.593372,-0.392289 -0.595136,-0.899583 -0.0046,-1.546931 -0.0018,-3.093509 -0.0021,-4.640439 0,-0.519642 -3.52e-4,-0.519995 -0.500238,-0.519995 -5.221464,-3.52e-4 -10.442928,-3.52e-4 -15.664039,-3.52e-4 z"
       style="fill:#878787;fill-opacity:1;fill-rule:nonzero;stroke:none;stroke-width:0.352778"
       id="path88-0"
       sodipodi:nodetypes="cccccccsccscccscccsccccccsc" />
  </g>
</svg>
